<svg width="20" height="22" viewBox="0 0 20 22" fill="none" xmlns="http://www.w3.org/2000/svg">
<path d="M9.54964 0.233743C10.0699 -0.0443071 10.1237 -0.0891545 10.6529 0.179927C13.1105 1.52533 15.5681 2.86177 18.0257 4.1982C18.3755 4.39553 18.7432 4.56595 19.0751 4.79018C17.2454 5.88445 15.3977 6.93386 13.559 8.01019C13.3168 8.16267 13.0387 8.2703 12.8414 8.48556C12.7966 8.77258 12.7786 9.07754 12.8593 9.37353C13.0208 9.5888 13.254 9.72334 13.5051 9.81303C13.6486 9.87582 13.7652 9.85787 13.8818 9.78612C15.7834 8.69186 17.6669 7.57069 19.5684 6.48539C19.5684 9.68746 19.5684 12.8985 19.5684 16.1006C19.5864 16.3786 19.4249 16.6477 19.1827 16.7822C16.3215 18.4685 13.4603 20.1547 10.608 21.841C10.3569 22.0203 10.025 22.0652 9.75594 21.8858C6.87677 20.1906 3.9976 18.4954 1.11843 16.8002C0.804506 16.6387 0.65203 16.271 0.678938 15.9301C0.687908 12.7819 0.669964 9.63364 0.696873 6.48539C3.46841 8.064 6.20407 9.69643 8.96663 11.284C9.0922 11.3737 9.30747 11.4275 9.28953 11.6248C9.2985 14.0107 9.28953 16.4055 9.2985 18.7914C9.28056 18.9977 9.40613 19.1232 9.57655 19.2219C9.68418 19.2847 10.0071 19.4551 10.1237 19.4551C10.2941 19.4551 10.4645 19.3385 10.617 19.2578C10.7874 19.1591 11.0296 19.0425 10.9847 18.8003C10.9847 16.1095 10.9937 13.4097 10.9847 10.7189C11.0116 10.5665 10.8951 10.4409 10.7695 10.3781C7.58535 8.51247 4.38328 6.67375 1.20813 4.79915C3.97966 3.24745 6.77811 1.75854 9.54964 0.233743Z" fill="url(#paint0_linear)"/>
<defs>
<linearGradient id="paint0_linear" x1="0.675915" y1="11" x2="19.5698" y2="11" gradientUnits="userSpaceOnUse">
<stop stop-color="#BB042B"/>
<stop offset="1" stop-color="#F8001A"/>
</linearGradient>
</defs>
</svg>
